<svg xmlns="http://www.w3.org/2000/svg" width="1600" height="900" viewBox="0 0 1600 900"><rect x="0" y="0" width="1600" height="900" rx="0" fill="#f5f3ed"/><g shape-rendering="crispEdges"><rect x="175.0" y="265.0" width="63.483333333333334" height="47.65" rx="0" fill="#dbe7df"/><rect x="238.33333333333334" y="265.0" width="63.483333333333334" height="47.65" rx="0" fill="#dbe7df"/><rect x="301.6666666666667" y="265.0" width="63.483333333333334" height="47.65" rx="0" fill="#dbe7df"/><rect x="365.0" y="265.0" width="63.483333333333334" height="47.65" rx="0" fill="#dbe7df"/><rect x="428.33333333333337" y="265.0" width="63.483333333333334" height="47.65" rx="0" fill="#dbe7df"/><rect x="491.6666666666667" y="265.0" width="63.483333333333334" height="47.65" rx="0" fill="#dbe7df"/><rect x="175.0" y="312.5" width="63.483333333333334" height="47.65" rx="0" fill="#dbe7df"/><rect x="238.33333333333334" y="312.5" width="63.483333333333334" height="47.65" rx="0" fill="#dbe7df"/><rect x="301.6666666666667" y="312.5" width="63.483333333333334" height="47.65" rx="0" fill="#dbe7df"/><rect x="365.0" y="312.5" width="63.483333333333334" height="47.65" rx="0" fill="#dbe7df"/><rect x="428.33333333333337" y="312.5" width="63.483333333333334" height="47.65" rx="0" fill="#cf9865"/><rect x="491.6666666666667" y="312.5" width="63.483333333333334" height="47.65" rx="0" fill="#dbe7df"/><rect x="175.0" y="360.0" width="63.483333333333334" height="47.65" rx="0" fill="#dbe7df"/><rect x="238.33333333333334" y="360.0" width="63.483333333333334" height="47.65" rx="0" fill="#86a999"/><rect x="301.6666666666667" y="360.0" width="63.483333333333334" height="47.65" rx="0" fill="#dbe7df"/><rect x="365.0" y="360.0" width="63.483333333333334" height="47.65" rx="0" fill="#dbe7df"/><rect x="428.33333333333337" y="360.0" width="63.483333333333334" height="47.65" rx="0" fill="#dbe7df"/><rect x="491.6666666666667" y="360.0" width="63.483333333333334" height="47.65" rx="0" fill="#dbe7df"/><rect x="175.0" y="407.5" width="63.483333333333334" height="47.65" rx="0" fill="#dbe7df"/><rect x="238.33333333333334" y="407.5" width="63.483333333333334" height="47.65" rx="0" fill="#86a999"/><rect x="301.6666666666667" y="407.5" width="63.483333333333334" height="47.65" rx="0" fill="#86a999"/><rect x="365.0" y="407.5" width="63.483333333333334" height="47.65" rx="0" fill="#dbe7df"/><rect x="428.33333333333337" y="407.5" width="63.483333333333334" height="47.65" rx="0" fill="#123f3a"/><rect x="491.6666666666667" y="407.5" width="63.483333333333334" height="47.65" rx="0" fill="#dbe7df"/><rect x="175.0" y="455.0" width="63.483333333333334" height="47.65" rx="0" fill="#86a999"/><rect x="238.33333333333334" y="455.0" width="63.483333333333334" height="47.65" rx="0" fill="#86a999"/><rect x="301.6666666666667" y="455.0" width="63.483333333333334" height="47.65" rx="0" fill="#86a999"/><rect x="365.0" y="455.0" width="63.483333333333334" height="47.65" rx="0" fill="#123f3a"/><rect x="428.33333333333337" y="455.0" width="63.483333333333334" height="47.65" rx="0" fill="#123f3a"/><rect x="491.6666666666667" y="455.0" width="63.483333333333334" height="47.65" rx="0" fill="#123f3a"/><rect x="175.0" y="502.5" width="63.483333333333334" height="47.65" rx="0" fill="#86a999"/><rect x="238.33333333333334" y="502.5" width="63.483333333333334" height="47.65" rx="0" fill="#86a999"/><rect x="301.6666666666667" y="502.5" width="63.483333333333334" height="47.65" rx="0" fill="#123f3a"/><rect x="365.0" y="502.5" width="63.483333333333334" height="47.65" rx="0" fill="#123f3a"/><rect x="428.33333333333337" y="502.5" width="63.483333333333334" height="47.65" rx="0" fill="#123f3a"/><rect x="491.6666666666667" y="502.5" width="63.483333333333334" height="47.65" rx="0" fill="#123f3a"/></g><text x="365.0" y="606" font-family="Noto Sans CJK JP, sans-serif" font-size="22" font-weight="500" fill="#60766f" text-anchor="middle">粗いモザイク</text><g shape-rendering="crispEdges"><rect x="610.0" y="265.0" width="21.26111111111111" height="15.983333333333334" rx="0" fill="#dbe7df"/><rect x="631.1111111111111" y="265.0" width="21.26111111111111" height="15.983333333333334" rx="0" fill="#dbe7df"/><rect x="652.2222222222222" y="265.0" width="21.26111111111111" height="15.983333333333334" rx="0" fill="#dbe7df"/><rect x="673.3333333333334" y="265.0" width="21.26111111111111" height="15.983333333333334" rx="0" fill="#dbe7df"/><rect x="694.4444444444445" y="265.0" width="21.26111111111111" height="15.983333333333334" rx="0" fill="#dbe7df"/><rect x="715.5555555555555" y="265.0" width="21.26111111111111" height="15.983333333333334" rx="0" fill="#dbe7df"/><rect x="736.6666666666666" y="265.0" width="21.26111111111111" height="15.983333333333334" rx="0" fill="#dbe7df"/><rect x="757.7777777777778" y="265.0" width="21.26111111111111" height="15.983333333333334" rx="0" fill="#dbe7df"/><rect x="778.8888888888889" y="265.0" width="21.26111111111111" height="15.983333333333334" rx="0" fill="#dbe7df"/><rect x="800.0" y="265.0" width="21.26111111111111" height="15.983333333333334" rx="0" fill="#dbe7df"/><rect x="821.1111111111111" y="265.0" width="21.26111111111111" height="15.983333333333334" rx="0" fill="#dbe7df"/><rect x="842.2222222222222" y="265.0" width="21.26111111111111" height="15.983333333333334" rx="0" fill="#dbe7df"/><rect x="863.3333333333334" y="265.0" width="21.26111111111111" height="15.983333333333334" rx="0" fill="#dbe7df"/><rect x="884.4444444444445" y="265.0" width="21.26111111111111" height="15.983333333333334" rx="0" fill="#dbe7df"/><rect x="905.5555555555555" y="265.0" width="21.26111111111111" height="15.983333333333334" rx="0" fill="#dbe7df"/><rect x="926.6666666666667" y="265.0" width="21.26111111111111" height="15.983333333333334" rx="0" fill="#dbe7df"/><rect x="947.7777777777778" y="265.0" width="21.26111111111111" height="15.983333333333334" rx="0" fill="#dbe7df"/><rect x="968.8888888888889" y="265.0" width="21.26111111111111" height="15.983333333333334" rx="0" fill="#dbe7df"/><rect x="610.0" y="280.8333333333333" width="21.26111111111111" height="15.983333333333334" rx="0" fill="#dbe7df"/><rect x="631.1111111111111" y="280.8333333333333" width="21.26111111111111" height="15.983333333333334" rx="0" fill="#dbe7df"/><rect x="652.2222222222222" y="280.8333333333333" width="21.26111111111111" height="15.983333333333334" rx="0" fill="#dbe7df"/><rect x="673.3333333333334" y="280.8333333333333" width="21.26111111111111" height="15.983333333333334" rx="0" fill="#dbe7df"/><rect x="694.4444444444445" y="280.8333333333333" width="21.26111111111111" height="15.983333333333334" rx="0" fill="#dbe7df"/><rect x="715.5555555555555" y="280.8333333333333" width="21.26111111111111" height="15.983333333333334" rx="0" fill="#dbe7df"/><rect x="736.6666666666666" y="280.8333333333333" width="21.26111111111111" height="15.983333333333334" rx="0" fill="#dbe7df"/><rect x="757.7777777777778" y="280.8333333333333" width="21.26111111111111" height="15.983333333333334" rx="0" fill="#dbe7df"/><rect x="778.8888888888889" y="280.8333333333333" width="21.26111111111111" height="15.983333333333334" rx="0" fill="#dbe7df"/><rect x="800.0" y="280.8333333333333" width="21.26111111111111" height="15.983333333333334" rx="0" fill="#dbe7df"/><rect x="821.1111111111111" y="280.8333333333333" width="21.26111111111111" height="15.983333333333334" rx="0" fill="#dbe7df"/><rect x="842.2222222222222" y="280.8333333333333" width="21.26111111111111" height="15.983333333333334" rx="0" fill="#dbe7df"/><rect x="863.3333333333334" y="280.8333333333333" width="21.26111111111111" height="15.983333333333334" rx="0" fill="#dbe7df"/><rect x="884.4444444444445" y="280.8333333333333" width="21.26111111111111" height="15.983333333333334" rx="0" fill="#dbe7df"/><rect x="905.5555555555555" y="280.8333333333333" width="21.26111111111111" height="15.983333333333334" rx="0" fill="#dbe7df"/><rect x="926.6666666666667" y="280.8333333333333" width="21.26111111111111" height="15.983333333333334" rx="0" fill="#dbe7df"/><rect x="947.7777777777778" y="280.8333333333333" width="21.26111111111111" height="15.983333333333334" rx="0" fill="#dbe7df"/><rect x="968.8888888888889" y="280.8333333333333" width="21.26111111111111" height="15.983333333333334" rx="0" fill="#dbe7df"/><rect x="610.0" y="296.6666666666667" width="21.26111111111111" height="15.983333333333334" rx="0" fill="#dbe7df"/><rect x="631.1111111111111" y="296.6666666666667" width="21.26111111111111" height="15.983333333333334" rx="0" fill="#dbe7df"/><rect x="652.2222222222222" y="296.6666666666667" width="21.26111111111111" height="15.983333333333334" rx="0" fill="#dbe7df"/><rect x="673.3333333333334" y="296.6666666666667" width="21.26111111111111" height="15.983333333333334" rx="0" fill="#dbe7df"/><rect x="694.4444444444445" y="296.6666666666667" width="21.26111111111111" height="15.983333333333334" rx="0" fill="#dbe7df"/><rect x="715.5555555555555" y="296.6666666666667" width="21.26111111111111" height="15.983333333333334" rx="0" fill="#dbe7df"/><rect x="736.6666666666666" y="296.6666666666667" width="21.26111111111111" height="15.983333333333334" rx="0" fill="#dbe7df"/><rect x="757.7777777777778" y="296.6666666666667" width="21.26111111111111" height="15.983333333333334" rx="0" fill="#dbe7df"/><rect x="778.8888888888889" y="296.6666666666667" width="21.26111111111111" height="15.983333333333334" rx="0" fill="#dbe7df"/><rect x="800.0" y="296.6666666666667" width="21.26111111111111" height="15.983333333333334" rx="0" fill="#dbe7df"/><rect x="821.1111111111111" y="296.6666666666667" width="21.26111111111111" height="15.983333333333334" rx="0" fill="#dbe7df"/><rect x="842.2222222222222" y="296.6666666666667" width="21.26111111111111" height="15.983333333333334" rx="0" fill="#dbe7df"/><rect x="863.3333333333334" y="296.6666666666667" width="21.26111111111111" height="15.983333333333334" rx="0" fill="#dbe7df"/><rect x="884.4444444444445" y="296.6666666666667" width="21.26111111111111" height="15.983333333333334" rx="0" fill="#dbe7df"/><rect x="905.5555555555555" y="296.6666666666667" width="21.26111111111111" height="15.983333333333334" rx="0" fill="#dbe7df"/><rect x="926.6666666666667" y="296.6666666666667" width="21.26111111111111" height="15.983333333333334" rx="0" fill="#dbe7df"/><rect x="947.7777777777778" y="296.6666666666667" width="21.26111111111111" height="15.983333333333334" rx="0" fill="#dbe7df"/><rect x="968.8888888888889" y="296.6666666666667" width="21.26111111111111" height="15.983333333333334" rx="0" fill="#dbe7df"/><rect x="610.0" y="312.5" width="21.26111111111111" height="15.983333333333334" rx="0" fill="#dbe7df"/><rect x="631.1111111111111" y="312.5" width="21.26111111111111" height="15.983333333333334" rx="0" fill="#dbe7df"/><rect x="652.2222222222222" y="312.5" width="21.26111111111111" height="15.983333333333334" rx="0" fill="#dbe7df"/><rect x="673.3333333333334" y="312.5" width="21.26111111111111" height="15.983333333333334" rx="0" fill="#dbe7df"/><rect x="694.4444444444445" y="312.5" width="21.26111111111111" height="15.983333333333334" rx="0" fill="#dbe7df"/><rect x="715.5555555555555" y="312.5" width="21.26111111111111" height="15.983333333333334" rx="0" fill="#dbe7df"/><rect x="736.6666666666666" y="312.5" width="21.26111111111111" height="15.983333333333334" rx="0" fill="#dbe7df"/><rect x="757.7777777777778" y="312.5" width="21.26111111111111" height="15.983333333333334" rx="0" fill="#dbe7df"/><rect x="778.8888888888889" y="312.5" width="21.26111111111111" height="15.983333333333334" rx="0" fill="#dbe7df"/><rect x="800.0" y="312.5" width="21.26111111111111" height="15.983333333333334" rx="0" fill="#dbe7df"/><rect x="821.1111111111111" y="312.5" width="21.26111111111111" height="15.983333333333334" rx="0" fill="#dbe7df"/><rect x="842.2222222222222" y="312.5" width="21.26111111111111" height="15.983333333333334" rx="0" fill="#dbe7df"/><rect x="863.3333333333334" y="312.5" width="21.26111111111111" height="15.983333333333334" rx="0" fill="#dbe7df"/><rect x="884.4444444444445" y="312.5" width="21.26111111111111" height="15.983333333333334" rx="0" fill="#cf9865"/><rect x="905.5555555555555" y="312.5" width="21.26111111111111" height="15.983333333333334" rx="0" fill="#cf9865"/><rect x="926.6666666666667" y="312.5" width="21.26111111111111" height="15.983333333333334" rx="0" fill="#dbe7df"/><rect x="947.7777777777778" y="312.5" width="21.26111111111111" height="15.983333333333334" rx="0" fill="#dbe7df"/><rect x="968.8888888888889" y="312.5" width="21.26111111111111" height="15.983333333333334" rx="0" fill="#dbe7df"/><rect x="610.0" y="328.3333333333333" width="21.26111111111111" height="15.983333333333334" rx="0" fill="#dbe7df"/><rect x="631.1111111111111" y="328.3333333333333" width="21.26111111111111" height="15.983333333333334" rx="0" fill="#dbe7df"/><rect x="652.2222222222222" y="328.3333333333333" width="21.26111111111111" height="15.983333333333334" rx="0" fill="#dbe7df"/><rect x="673.3333333333334" y="328.3333333333333" width="21.26111111111111" height="15.983333333333334" rx="0" fill="#dbe7df"/><rect x="694.4444444444445" y="328.3333333333333" width="21.26111111111111" height="15.983333333333334" rx="0" fill="#dbe7df"/><rect x="715.5555555555555" y="328.3333333333333" width="21.26111111111111" height="15.983333333333334" rx="0" fill="#dbe7df"/><rect x="736.6666666666666" y="328.3333333333333" width="21.26111111111111" height="15.983333333333334" rx="0" fill="#dbe7df"/><rect x="757.7777777777778" y="328.3333333333333" width="21.26111111111111" height="15.983333333333334" rx="0" fill="#dbe7df"/><rect x="778.8888888888889" y="328.3333333333333" width="21.26111111111111" height="15.983333333333334" rx="0" fill="#dbe7df"/><rect x="800.0" y="328.3333333333333" width="21.26111111111111" height="15.983333333333334" rx="0" fill="#dbe7df"/><rect x="821.1111111111111" y="328.3333333333333" width="21.26111111111111" height="15.983333333333334" rx="0" fill="#dbe7df"/><rect x="842.2222222222222" y="328.3333333333333" width="21.26111111111111" height="15.983333333333334" rx="0" fill="#dbe7df"/><rect x="863.3333333333334" y="328.3333333333333" width="21.26111111111111" height="15.983333333333334" rx="0" fill="#cf9865"/><rect x="884.4444444444445" y="328.3333333333333" width="21.26111111111111" height="15.983333333333334" rx="0" fill="#cf9865"/><rect x="905.5555555555555" y="328.3333333333333" width="21.26111111111111" height="15.983333333333334" rx="0" fill="#cf9865"/><rect x="926.6666666666667" y="328.3333333333333" width="21.26111111111111" height="15.983333333333334" rx="0" fill="#dbe7df"/><rect x="947.7777777777778" y="328.3333333333333" width="21.26111111111111" height="15.983333333333334" rx="0" fill="#dbe7df"/><rect x="968.8888888888889" y="328.3333333333333" width="21.26111111111111" height="15.983333333333334" rx="0" fill="#dbe7df"/><rect x="610.0" y="344.1666666666667" width="21.26111111111111" height="15.983333333333334" rx="0" fill="#dbe7df"/><rect x="631.1111111111111" y="344.1666666666667" width="21.26111111111111" height="15.983333333333334" rx="0" fill="#dbe7df"/><rect x="652.2222222222222" y="344.1666666666667" width="21.26111111111111" height="15.983333333333334" rx="0" fill="#dbe7df"/><rect x="673.3333333333334" y="344.1666666666667" width="21.26111111111111" height="15.983333333333334" rx="0" fill="#dbe7df"/><rect x="694.4444444444445" y="344.1666666666667" width="21.26111111111111" height="15.983333333333334" rx="0" fill="#dbe7df"/><rect x="715.5555555555555" y="344.1666666666667" width="21.26111111111111" height="15.983333333333334" rx="0" fill="#86a999"/><rect x="736.6666666666666" y="344.1666666666667" width="21.26111111111111" height="15.983333333333334" rx="0" fill="#dbe7df"/><rect x="757.7777777777778" y="344.1666666666667" width="21.26111111111111" height="15.983333333333334" rx="0" fill="#dbe7df"/><rect x="778.8888888888889" y="344.1666666666667" width="21.26111111111111" height="15.983333333333334" rx="0" fill="#dbe7df"/><rect x="800.0" y="344.1666666666667" width="21.26111111111111" height="15.983333333333334" rx="0" fill="#dbe7df"/><rect x="821.1111111111111" y="344.1666666666667" width="21.26111111111111" height="15.983333333333334" rx="0" fill="#dbe7df"/><rect x="842.2222222222222" y="344.1666666666667" width="21.26111111111111" height="15.983333333333334" rx="0" fill="#dbe7df"/><rect x="863.3333333333334" y="344.1666666666667" width="21.26111111111111" height="15.983333333333334" rx="0" fill="#dbe7df"/><rect x="884.4444444444445" y="344.1666666666667" width="21.26111111111111" height="15.983333333333334" rx="0" fill="#cf9865"/><rect x="905.5555555555555" y="344.1666666666667" width="21.26111111111111" height="15.983333333333334" rx="0" fill="#cf9865"/><rect x="926.6666666666667" y="344.1666666666667" width="21.26111111111111" height="15.983333333333334" rx="0" fill="#dbe7df"/><rect x="947.7777777777778" y="344.1666666666667" width="21.26111111111111" height="15.983333333333334" rx="0" fill="#dbe7df"/><rect x="968.8888888888889" y="344.1666666666667" width="21.26111111111111" height="15.983333333333334" rx="0" fill="#dbe7df"/><rect x="610.0" y="360.0" width="21.26111111111111" height="15.983333333333334" rx="0" fill="#dbe7df"/><rect x="631.1111111111111" y="360.0" width="21.26111111111111" height="15.983333333333334" rx="0" fill="#dbe7df"/><rect x="652.2222222222222" y="360.0" width="21.26111111111111" height="15.983333333333334" rx="0" fill="#dbe7df"/><rect x="673.3333333333334" y="360.0" width="21.26111111111111" height="15.983333333333334" rx="0" fill="#dbe7df"/><rect x="694.4444444444445" y="360.0" width="21.26111111111111" height="15.983333333333334" rx="0" fill="#dbe7df"/><rect x="715.5555555555555" y="360.0" width="21.26111111111111" height="15.983333333333334" rx="0" fill="#86a999"/><rect x="736.6666666666666" y="360.0" width="21.26111111111111" height="15.983333333333334" rx="0" fill="#86a999"/><rect x="757.7777777777778" y="360.0" width="21.26111111111111" height="15.983333333333334" rx="0" fill="#dbe7df"/><rect x="778.8888888888889" y="360.0" width="21.26111111111111" height="15.983333333333334" rx="0" fill="#dbe7df"/><rect x="800.0" y="360.0" width="21.26111111111111" height="15.983333333333334" rx="0" fill="#dbe7df"/><rect x="821.1111111111111" y="360.0" width="21.26111111111111" height="15.983333333333334" rx="0" fill="#dbe7df"/><rect x="842.2222222222222" y="360.0" width="21.26111111111111" height="15.983333333333334" rx="0" fill="#dbe7df"/><rect x="863.3333333333334" y="360.0" width="21.26111111111111" height="15.983333333333334" rx="0" fill="#dbe7df"/><rect x="884.4444444444445" y="360.0" width="21.26111111111111" height="15.983333333333334" rx="0" fill="#dbe7df"/><rect x="905.5555555555555" y="360.0" width="21.26111111111111" height="15.983333333333334" rx="0" fill="#dbe7df"/><rect x="926.6666666666667" y="360.0" width="21.26111111111111" height="15.983333333333334" rx="0" fill="#dbe7df"/><rect x="947.7777777777778" y="360.0" width="21.26111111111111" height="15.983333333333334" rx="0" fill="#dbe7df"/><rect x="968.8888888888889" y="360.0" width="21.26111111111111" height="15.983333333333334" rx="0" fill="#dbe7df"/><rect x="610.0" y="375.8333333333333" width="21.26111111111111" height="15.983333333333334" rx="0" fill="#dbe7df"/><rect x="631.1111111111111" y="375.8333333333333" width="21.26111111111111" height="15.983333333333334" rx="0" fill="#dbe7df"/><rect x="652.2222222222222" y="375.8333333333333" width="21.26111111111111" height="15.983333333333334" rx="0" fill="#dbe7df"/><rect x="673.3333333333334" y="375.8333333333333" width="21.26111111111111" height="15.983333333333334" rx="0" fill="#dbe7df"/><rect x="694.4444444444445" y="375.8333333333333" width="21.26111111111111" height="15.983333333333334" rx="0" fill="#86a999"/><rect x="715.5555555555555" y="375.8333333333333" width="21.26111111111111" height="15.983333333333334" rx="0" fill="#86a999"/><rect x="736.6666666666666" y="375.8333333333333" width="21.26111111111111" height="15.983333333333334" rx="0" fill="#86a999"/><rect x="757.7777777777778" y="375.8333333333333" width="21.26111111111111" height="15.983333333333334" rx="0" fill="#dbe7df"/><rect x="778.8888888888889" y="375.8333333333333" width="21.26111111111111" height="15.983333333333334" rx="0" fill="#dbe7df"/><rect x="800.0" y="375.8333333333333" width="21.26111111111111" height="15.983333333333334" rx="0" fill="#dbe7df"/><rect x="821.1111111111111" y="375.8333333333333" width="21.26111111111111" height="15.983333333333334" rx="0" fill="#dbe7df"/><rect x="842.2222222222222" y="375.8333333333333" width="21.26111111111111" height="15.983333333333334" rx="0" fill="#dbe7df"/><rect x="863.3333333333334" y="375.8333333333333" width="21.26111111111111" height="15.983333333333334" rx="0" fill="#dbe7df"/><rect x="884.4444444444445" y="375.8333333333333" width="21.26111111111111" height="15.983333333333334" rx="0" fill="#dbe7df"/><rect x="905.5555555555555" y="375.8333333333333" width="21.26111111111111" height="15.983333333333334" rx="0" fill="#dbe7df"/><rect x="926.6666666666667" y="375.8333333333333" width="21.26111111111111" height="15.983333333333334" rx="0" fill="#dbe7df"/><rect x="947.7777777777778" y="375.8333333333333" width="21.26111111111111" height="15.983333333333334" rx="0" fill="#dbe7df"/><rect x="968.8888888888889" y="375.8333333333333" width="21.26111111111111" height="15.983333333333334" rx="0" fill="#dbe7df"/><rect x="610.0" y="391.6666666666667" width="21.26111111111111" height="15.983333333333334" rx="0" fill="#dbe7df"/><rect x="631.1111111111111" y="391.6666666666667" width="21.26111111111111" height="15.983333333333334" rx="0" fill="#dbe7df"/><rect x="652.2222222222222" y="391.6666666666667" width="21.26111111111111" height="15.983333333333334" rx="0" fill="#dbe7df"/><rect x="673.3333333333334" y="391.6666666666667" width="21.26111111111111" height="15.983333333333334" rx="0" fill="#dbe7df"/><rect x="694.4444444444445" y="391.6666666666667" width="21.26111111111111" height="15.983333333333334" rx="0" fill="#86a999"/><rect x="715.5555555555555" y="391.6666666666667" width="21.26111111111111" height="15.983333333333334" rx="0" fill="#86a999"/><rect x="736.6666666666666" y="391.6666666666667" width="21.26111111111111" height="15.983333333333334" rx="0" fill="#86a999"/><rect x="757.7777777777778" y="391.6666666666667" width="21.26111111111111" height="15.983333333333334" rx="0" fill="#86a999"/><rect x="778.8888888888889" y="391.6666666666667" width="21.26111111111111" height="15.983333333333334" rx="0" fill="#dbe7df"/><rect x="800.0" y="391.6666666666667" width="21.26111111111111" height="15.983333333333334" rx="0" fill="#dbe7df"/><rect x="821.1111111111111" y="391.6666666666667" width="21.26111111111111" height="15.983333333333334" rx="0" fill="#dbe7df"/><rect x="842.2222222222222" y="391.6666666666667" width="21.26111111111111" height="15.983333333333334" rx="0" fill="#dbe7df"/><rect x="863.3333333333334" y="391.6666666666667" width="21.26111111111111" height="15.983333333333334" rx="0" fill="#123f3a"/><rect x="884.4444444444445" y="391.6666666666667" width="21.26111111111111" height="15.983333333333334" rx="0" fill="#dbe7df"/><rect x="905.5555555555555" y="391.6666666666667" width="21.26111111111111" height="15.983333333333334" rx="0" fill="#dbe7df"/><rect x="926.6666666666667" y="391.6666666666667" width="21.26111111111111" height="15.983333333333334" rx="0" fill="#dbe7df"/><rect x="947.7777777777778" y="391.6666666666667" width="21.26111111111111" height="15.983333333333334" rx="0" fill="#dbe7df"/><rect x="968.8888888888889" y="391.6666666666667" width="21.26111111111111" height="15.983333333333334" rx="0" fill="#dbe7df"/><rect x="610.0" y="407.5" width="21.26111111111111" height="15.983333333333334" rx="0" fill="#dbe7df"/><rect x="631.1111111111111" y="407.5" width="21.26111111111111" height="15.983333333333334" rx="0" fill="#dbe7df"/><rect x="652.2222222222222" y="407.5" width="21.26111111111111" height="15.983333333333334" rx="0" fill="#dbe7df"/><rect x="673.3333333333334" y="407.5" width="21.26111111111111" height="15.983333333333334" rx="0" fill="#86a999"/><rect x="694.4444444444445" y="407.5" width="21.26111111111111" height="15.983333333333334" rx="0" fill="#86a999"/><rect x="715.5555555555555" y="407.5" width="21.26111111111111" height="15.983333333333334" rx="0" fill="#86a999"/><rect x="736.6666666666666" y="407.5" width="21.26111111111111" height="15.983333333333334" rx="0" fill="#86a999"/><rect x="757.7777777777778" y="407.5" width="21.26111111111111" height="15.983333333333334" rx="0" fill="#86a999"/><rect x="778.8888888888889" y="407.5" width="21.26111111111111" height="15.983333333333334" rx="0" fill="#dbe7df"/><rect x="800.0" y="407.5" width="21.26111111111111" height="15.983333333333334" rx="0" fill="#dbe7df"/><rect x="821.1111111111111" y="407.5" width="21.26111111111111" height="15.983333333333334" rx="0" fill="#dbe7df"/><rect x="842.2222222222222" y="407.5" width="21.26111111111111" height="15.983333333333334" rx="0" fill="#dbe7df"/><rect x="863.3333333333334" y="407.5" width="21.26111111111111" height="15.983333333333334" rx="0" fill="#123f3a"/><rect x="884.4444444444445" y="407.5" width="21.26111111111111" height="15.983333333333334" rx="0" fill="#123f3a"/><rect x="905.5555555555555" y="407.5" width="21.26111111111111" height="15.983333333333334" rx="0" fill="#dbe7df"/><rect x="926.6666666666667" y="407.5" width="21.26111111111111" height="15.983333333333334" rx="0" fill="#dbe7df"/><rect x="947.7777777777778" y="407.5" width="21.26111111111111" height="15.983333333333334" rx="0" fill="#dbe7df"/><rect x="968.8888888888889" y="407.5" width="21.26111111111111" height="15.983333333333334" rx="0" fill="#dbe7df"/><rect x="610.0" y="423.33333333333337" width="21.26111111111111" height="15.983333333333334" rx="0" fill="#dbe7df"/><rect x="631.1111111111111" y="423.33333333333337" width="21.26111111111111" height="15.983333333333334" rx="0" fill="#dbe7df"/><rect x="652.2222222222222" y="423.33333333333337" width="21.26111111111111" height="15.983333333333334" rx="0" fill="#86a999"/><rect x="673.3333333333334" y="423.33333333333337" width="21.26111111111111" height="15.983333333333334" rx="0" fill="#86a999"/><rect x="694.4444444444445" y="423.33333333333337" width="21.26111111111111" height="15.983333333333334" rx="0" fill="#86a999"/><rect x="715.5555555555555" y="423.33333333333337" width="21.26111111111111" height="15.983333333333334" rx="0" fill="#86a999"/><rect x="736.6666666666666" y="423.33333333333337" width="21.26111111111111" height="15.983333333333334" rx="0" fill="#86a999"/><rect x="757.7777777777778" y="423.33333333333337" width="21.26111111111111" height="15.983333333333334" rx="0" fill="#86a999"/><rect x="778.8888888888889" y="423.33333333333337" width="21.26111111111111" height="15.983333333333334" rx="0" fill="#86a999"/><rect x="800.0" y="423.33333333333337" width="21.26111111111111" height="15.983333333333334" rx="0" fill="#dbe7df"/><rect x="821.1111111111111" y="423.33333333333337" width="21.26111111111111" height="15.983333333333334" rx="0" fill="#dbe7df"/><rect x="842.2222222222222" y="423.33333333333337" width="21.26111111111111" height="15.983333333333334" rx="0" fill="#123f3a"/><rect x="863.3333333333334" y="423.33333333333337" width="21.26111111111111" height="15.983333333333334" rx="0" fill="#123f3a"/><rect x="884.4444444444445" y="423.33333333333337" width="21.26111111111111" height="15.983333333333334" rx="0" fill="#123f3a"/><rect x="905.5555555555555" y="423.33333333333337" width="21.26111111111111" height="15.983333333333334" rx="0" fill="#123f3a"/><rect x="926.6666666666667" y="423.33333333333337" width="21.26111111111111" height="15.983333333333334" rx="0" fill="#dbe7df"/><rect x="947.7777777777778" y="423.33333333333337" width="21.26111111111111" height="15.983333333333334" rx="0" fill="#dbe7df"/><rect x="968.8888888888889" y="423.33333333333337" width="21.26111111111111" height="15.983333333333334" rx="0" fill="#dbe7df"/><rect x="610.0" y="439.16666666666663" width="21.26111111111111" height="15.983333333333334" rx="0" fill="#dbe7df"/><rect x="631.1111111111111" y="439.16666666666663" width="21.26111111111111" height="15.983333333333334" rx="0" fill="#dbe7df"/><rect x="652.2222222222222" y="439.16666666666663" width="21.26111111111111" height="15.983333333333334" rx="0" fill="#86a999"/><rect x="673.3333333333334" y="439.16666666666663" width="21.26111111111111" height="15.983333333333334" rx="0" fill="#86a999"/><rect x="694.4444444444445" y="439.16666666666663" width="21.26111111111111" height="15.983333333333334" rx="0" fill="#86a999"/><rect x="715.5555555555555" y="439.16666666666663" width="21.26111111111111" height="15.983333333333334" rx="0" fill="#86a999"/><rect x="736.6666666666666" y="439.16666666666663" width="21.26111111111111" height="15.983333333333334" rx="0" fill="#86a999"/><rect x="757.7777777777778" y="439.16666666666663" width="21.26111111111111" height="15.983333333333334" rx="0" fill="#86a999"/><rect x="778.8888888888889" y="439.16666666666663" width="21.26111111111111" height="15.983333333333334" rx="0" fill="#86a999"/><rect x="800.0" y="439.16666666666663" width="21.26111111111111" height="15.983333333333334" rx="0" fill="#dbe7df"/><rect x="821.1111111111111" y="439.16666666666663" width="21.26111111111111" height="15.983333333333334" rx="0" fill="#123f3a"/><rect x="842.2222222222222" y="439.16666666666663" width="21.26111111111111" height="15.983333333333334" rx="0" fill="#123f3a"/><rect x="863.3333333333334" y="439.16666666666663" width="21.26111111111111" height="15.983333333333334" rx="0" fill="#123f3a"/><rect x="884.4444444444445" y="439.16666666666663" width="21.26111111111111" height="15.983333333333334" rx="0" fill="#123f3a"/><rect x="905.5555555555555" y="439.16666666666663" width="21.26111111111111" height="15.983333333333334" rx="0" fill="#123f3a"/><rect x="926.6666666666667" y="439.16666666666663" width="21.26111111111111" height="15.983333333333334" rx="0" fill="#dbe7df"/><rect x="947.7777777777778" y="439.16666666666663" width="21.26111111111111" height="15.983333333333334" rx="0" fill="#dbe7df"/><rect x="968.8888888888889" y="439.16666666666663" width="21.26111111111111" height="15.983333333333334" rx="0" fill="#dbe7df"/><rect x="610.0" y="455.0" width="21.26111111111111" height="15.983333333333334" rx="0" fill="#dbe7df"/><rect x="631.1111111111111" y="455.0" width="21.26111111111111" height="15.983333333333334" rx="0" fill="#86a999"/><rect x="652.2222222222222" y="455.0" width="21.26111111111111" height="15.983333333333334" rx="0" fill="#86a999"/><rect x="673.3333333333334" y="455.0" width="21.26111111111111" height="15.983333333333334" rx="0" fill="#86a999"/><rect x="694.4444444444445" y="455.0" width="21.26111111111111" height="15.983333333333334" rx="0" fill="#86a999"/><rect x="715.5555555555555" y="455.0" width="21.26111111111111" height="15.983333333333334" rx="0" fill="#86a999"/><rect x="736.6666666666666" y="455.0" width="21.26111111111111" height="15.983333333333334" rx="0" fill="#86a999"/><rect x="757.7777777777778" y="455.0" width="21.26111111111111" height="15.983333333333334" rx="0" fill="#86a999"/><rect x="778.8888888888889" y="455.0" width="21.26111111111111" height="15.983333333333334" rx="0" fill="#86a999"/><rect x="800.0" y="455.0" width="21.26111111111111" height="15.983333333333334" rx="0" fill="#123f3a"/><rect x="821.1111111111111" y="455.0" width="21.26111111111111" height="15.983333333333334" rx="0" fill="#123f3a"/><rect x="842.2222222222222" y="455.0" width="21.26111111111111" height="15.983333333333334" rx="0" fill="#123f3a"/><rect x="863.3333333333334" y="455.0" width="21.26111111111111" height="15.983333333333334" rx="0" fill="#123f3a"/><rect x="884.4444444444445" y="455.0" width="21.26111111111111" height="15.983333333333334" rx="0" fill="#123f3a"/><rect x="905.5555555555555" y="455.0" width="21.26111111111111" height="15.983333333333334" rx="0" fill="#123f3a"/><rect x="926.6666666666667" y="455.0" width="21.26111111111111" height="15.983333333333334" rx="0" fill="#123f3a"/><rect x="947.7777777777778" y="455.0" width="21.26111111111111" height="15.983333333333334" rx="0" fill="#dbe7df"/><rect x="968.8888888888889" y="455.0" width="21.26111111111111" height="15.983333333333334" rx="0" fill="#dbe7df"/><rect x="610.0" y="470.83333333333337" width="21.26111111111111" height="15.983333333333334" rx="0" fill="#dbe7df"/><rect x="631.1111111111111" y="470.83333333333337" width="21.26111111111111" height="15.983333333333334" rx="0" fill="#86a999"/><rect x="652.2222222222222" y="470.83333333333337" width="21.26111111111111" height="15.983333333333334" rx="0" fill="#86a999"/><rect x="673.3333333333334" y="470.83333333333337" width="21.26111111111111" height="15.983333333333334" rx="0" fill="#86a999"/><rect x="694.4444444444445" y="470.83333333333337" width="21.26111111111111" height="15.983333333333334" rx="0" fill="#86a999"/><rect x="715.5555555555555" y="470.83333333333337" width="21.26111111111111" height="15.983333333333334" rx="0" fill="#86a999"/><rect x="736.6666666666666" y="470.83333333333337" width="21.26111111111111" height="15.983333333333334" rx="0" fill="#86a999"/><rect x="757.7777777777778" y="470.83333333333337" width="21.26111111111111" height="15.983333333333334" rx="0" fill="#86a999"/><rect x="778.8888888888889" y="470.83333333333337" width="21.26111111111111" height="15.983333333333334" rx="0" fill="#86a999"/><rect x="800.0" y="470.83333333333337" width="21.26111111111111" height="15.983333333333334" rx="0" fill="#123f3a"/><rect x="821.1111111111111" y="470.83333333333337" width="21.26111111111111" height="15.983333333333334" rx="0" fill="#123f3a"/><rect x="842.2222222222222" y="470.83333333333337" width="21.26111111111111" height="15.983333333333334" rx="0" fill="#123f3a"/><rect x="863.3333333333334" y="470.83333333333337" width="21.26111111111111" height="15.983333333333334" rx="0" fill="#123f3a"/><rect x="884.4444444444445" y="470.83333333333337" width="21.26111111111111" height="15.983333333333334" rx="0" fill="#123f3a"/><rect x="905.5555555555555" y="470.83333333333337" width="21.26111111111111" height="15.983333333333334" rx="0" fill="#123f3a"/><rect x="926.6666666666667" y="470.83333333333337" width="21.26111111111111" height="15.983333333333334" rx="0" fill="#123f3a"/><rect x="947.7777777777778" y="470.83333333333337" width="21.26111111111111" height="15.983333333333334" rx="0" fill="#123f3a"/><rect x="968.8888888888889" y="470.83333333333337" width="21.26111111111111" height="15.983333333333334" rx="0" fill="#dbe7df"/><rect x="610.0" y="486.66666666666663" width="21.26111111111111" height="15.983333333333334" rx="0" fill="#86a999"/><rect x="631.1111111111111" y="486.66666666666663" width="21.26111111111111" height="15.983333333333334" rx="0" fill="#86a999"/><rect x="652.2222222222222" y="486.66666666666663" width="21.26111111111111" height="15.983333333333334" rx="0" fill="#86a999"/><rect x="673.3333333333334" y="486.66666666666663" width="21.26111111111111" height="15.983333333333334" rx="0" fill="#86a999"/><rect x="694.4444444444445" y="486.66666666666663" width="21.26111111111111" height="15.983333333333334" rx="0" fill="#86a999"/><rect x="715.5555555555555" y="486.66666666666663" width="21.26111111111111" height="15.983333333333334" rx="0" fill="#86a999"/><rect x="736.6666666666666" y="486.66666666666663" width="21.26111111111111" height="15.983333333333334" rx="0" fill="#86a999"/><rect x="757.7777777777778" y="486.66666666666663" width="21.26111111111111" height="15.983333333333334" rx="0" fill="#86a999"/><rect x="778.8888888888889" y="486.66666666666663" width="21.26111111111111" height="15.983333333333334" rx="0" fill="#123f3a"/><rect x="800.0" y="486.66666666666663" width="21.26111111111111" height="15.983333333333334" rx="0" fill="#123f3a"/><rect x="821.1111111111111" y="486.66666666666663" width="21.26111111111111" height="15.983333333333334" rx="0" fill="#123f3a"/><rect x="842.2222222222222" y="486.66666666666663" width="21.26111111111111" height="15.983333333333334" rx="0" fill="#123f3a"/><rect x="863.3333333333334" y="486.66666666666663" width="21.26111111111111" height="15.983333333333334" rx="0" fill="#123f3a"/><rect x="884.4444444444445" y="486.66666666666663" width="21.26111111111111" height="15.983333333333334" rx="0" fill="#123f3a"/><rect x="905.5555555555555" y="486.66666666666663" width="21.26111111111111" height="15.983333333333334" rx="0" fill="#123f3a"/><rect x="926.6666666666667" y="486.66666666666663" width="21.26111111111111" height="15.983333333333334" rx="0" fill="#123f3a"/><rect x="947.7777777777778" y="486.66666666666663" width="21.26111111111111" height="15.983333333333334" rx="0" fill="#123f3a"/><rect x="968.8888888888889" y="486.66666666666663" width="21.26111111111111" height="15.983333333333334" rx="0" fill="#123f3a"/><rect x="610.0" y="502.5" width="21.26111111111111" height="15.983333333333334" rx="0" fill="#86a999"/><rect x="631.1111111111111" y="502.5" width="21.26111111111111" height="15.983333333333334" rx="0" fill="#86a999"/><rect x="652.2222222222222" y="502.5" width="21.26111111111111" height="15.983333333333334" rx="0" fill="#86a999"/><rect x="673.3333333333334" y="502.5" width="21.26111111111111" height="15.983333333333334" rx="0" fill="#86a999"/><rect x="694.4444444444445" y="502.5" width="21.26111111111111" height="15.983333333333334" rx="0" fill="#86a999"/><rect x="715.5555555555555" y="502.5" width="21.26111111111111" height="15.983333333333334" rx="0" fill="#86a999"/><rect x="736.6666666666666" y="502.5" width="21.26111111111111" height="15.983333333333334" rx="0" fill="#86a999"/><rect x="757.7777777777778" y="502.5" width="21.26111111111111" height="15.983333333333334" rx="0" fill="#123f3a"/><rect x="778.8888888888889" y="502.5" width="21.26111111111111" height="15.983333333333334" rx="0" fill="#123f3a"/><rect x="800.0" y="502.5" width="21.26111111111111" height="15.983333333333334" rx="0" fill="#123f3a"/><rect x="821.1111111111111" y="502.5" width="21.26111111111111" height="15.983333333333334" rx="0" fill="#123f3a"/><rect x="842.2222222222222" y="502.5" width="21.26111111111111" height="15.983333333333334" rx="0" fill="#123f3a"/><rect x="863.3333333333334" y="502.5" width="21.26111111111111" height="15.983333333333334" rx="0" fill="#123f3a"/><rect x="884.4444444444445" y="502.5" width="21.26111111111111" height="15.983333333333334" rx="0" fill="#123f3a"/><rect x="905.5555555555555" y="502.5" width="21.26111111111111" height="15.983333333333334" rx="0" fill="#123f3a"/><rect x="926.6666666666667" y="502.5" width="21.26111111111111" height="15.983333333333334" rx="0" fill="#123f3a"/><rect x="947.7777777777778" y="502.5" width="21.26111111111111" height="15.983333333333334" rx="0" fill="#123f3a"/><rect x="968.8888888888889" y="502.5" width="21.26111111111111" height="15.983333333333334" rx="0" fill="#123f3a"/><rect x="610.0" y="518.3333333333334" width="21.26111111111111" height="15.983333333333334" rx="0" fill="#86a999"/><rect x="631.1111111111111" y="518.3333333333334" width="21.26111111111111" height="15.983333333333334" rx="0" fill="#86a999"/><rect x="652.2222222222222" y="518.3333333333334" width="21.26111111111111" height="15.983333333333334" rx="0" fill="#86a999"/><rect x="673.3333333333334" y="518.3333333333334" width="21.26111111111111" height="15.983333333333334" rx="0" fill="#86a999"/><rect x="694.4444444444445" y="518.3333333333334" width="21.26111111111111" height="15.983333333333334" rx="0" fill="#86a999"/><rect x="715.5555555555555" y="518.3333333333334" width="21.26111111111111" height="15.983333333333334" rx="0" fill="#86a999"/><rect x="736.6666666666666" y="518.3333333333334" width="21.26111111111111" height="15.983333333333334" rx="0" fill="#123f3a"/><rect x="757.7777777777778" y="518.3333333333334" width="21.26111111111111" height="15.983333333333334" rx="0" fill="#123f3a"/><rect x="778.8888888888889" y="518.3333333333334" width="21.26111111111111" height="15.983333333333334" rx="0" fill="#123f3a"/><rect x="800.0" y="518.3333333333334" width="21.26111111111111" height="15.983333333333334" rx="0" fill="#123f3a"/><rect x="821.1111111111111" y="518.3333333333334" width="21.26111111111111" height="15.983333333333334" rx="0" fill="#123f3a"/><rect x="842.2222222222222" y="518.3333333333334" width="21.26111111111111" height="15.983333333333334" rx="0" fill="#123f3a"/><rect x="863.3333333333334" y="518.3333333333334" width="21.26111111111111" height="15.983333333333334" rx="0" fill="#123f3a"/><rect x="884.4444444444445" y="518.3333333333334" width="21.26111111111111" height="15.983333333333334" rx="0" fill="#123f3a"/><rect x="905.5555555555555" y="518.3333333333334" width="21.26111111111111" height="15.983333333333334" rx="0" fill="#123f3a"/><rect x="926.6666666666667" y="518.3333333333334" width="21.26111111111111" height="15.983333333333334" rx="0" fill="#123f3a"/><rect x="947.7777777777778" y="518.3333333333334" width="21.26111111111111" height="15.983333333333334" rx="0" fill="#123f3a"/><rect x="968.8888888888889" y="518.3333333333334" width="21.26111111111111" height="15.983333333333334" rx="0" fill="#123f3a"/><rect x="610.0" y="534.1666666666667" width="21.26111111111111" height="15.983333333333334" rx="0" fill="#86a999"/><rect x="631.1111111111111" y="534.1666666666667" width="21.26111111111111" height="15.983333333333334" rx="0" fill="#86a999"/><rect x="652.2222222222222" y="534.1666666666667" width="21.26111111111111" height="15.983333333333334" rx="0" fill="#86a999"/><rect x="673.3333333333334" y="534.1666666666667" width="21.26111111111111" height="15.983333333333334" rx="0" fill="#86a999"/><rect x="694.4444444444445" y="534.1666666666667" width="21.26111111111111" height="15.983333333333334" rx="0" fill="#86a999"/><rect x="715.5555555555555" y="534.1666666666667" width="21.26111111111111" height="15.983333333333334" rx="0" fill="#123f3a"/><rect x="736.6666666666666" y="534.1666666666667" width="21.26111111111111" height="15.983333333333334" rx="0" fill="#123f3a"/><rect x="757.7777777777778" y="534.1666666666667" width="21.26111111111111" height="15.983333333333334" rx="0" fill="#123f3a"/><rect x="778.8888888888889" y="534.1666666666667" width="21.26111111111111" height="15.983333333333334" rx="0" fill="#123f3a"/><rect x="800.0" y="534.1666666666667" width="21.26111111111111" height="15.983333333333334" rx="0" fill="#123f3a"/><rect x="821.1111111111111" y="534.1666666666667" width="21.26111111111111" height="15.983333333333334" rx="0" fill="#123f3a"/><rect x="842.2222222222222" y="534.1666666666667" width="21.26111111111111" height="15.983333333333334" rx="0" fill="#123f3a"/><rect x="863.3333333333334" y="534.1666666666667" width="21.26111111111111" height="15.983333333333334" rx="0" fill="#123f3a"/><rect x="884.4444444444445" y="534.1666666666667" width="21.26111111111111" height="15.983333333333334" rx="0" fill="#123f3a"/><rect x="905.5555555555555" y="534.1666666666667" width="21.26111111111111" height="15.983333333333334" rx="0" fill="#123f3a"/><rect x="926.6666666666667" y="534.1666666666667" width="21.26111111111111" height="15.983333333333334" rx="0" fill="#123f3a"/><rect x="947.7777777777778" y="534.1666666666667" width="21.26111111111111" height="15.983333333333334" rx="0" fill="#123f3a"/><rect x="968.8888888888889" y="534.1666666666667" width="21.26111111111111" height="15.983333333333334" rx="0" fill="#123f3a"/></g><text x="800.0" y="606" font-family="Noto Sans CJK JP, sans-serif" font-size="22" font-weight="500" fill="#60766f" text-anchor="middle">段階的に細かく</text><rect x="1045" y="265" width="380" height="285" rx="0" fill="#dbe7df"/><circle cx="1333.8" cy="336.25" r="32.300000000000004" fill="#cf9865"/><path d="M1045 493.0L1166.6 341.95L1307.2 550H1045Z" fill="#86a999" stroke="#86a999" stroke-width="0" stroke-linecap="round" stroke-linejoin="round"/><path d="M1151.4 550L1311.0 396.1L1425 493.0V550Z" fill="#123f3a" stroke="#123f3a" stroke-width="0" stroke-linecap="round" stroke-linejoin="round"/><text x="1235.0" y="606" font-family="Noto Sans CJK JP, sans-serif" font-size="22" font-weight="500" fill="#60766f" text-anchor="middle">元の図案</text><path d="M270 689L1340 689" fill="none" stroke="#60766f" stroke-width="2"/><circle cx="365" cy="689" r="7" fill="#123f3a"/><circle cx="800" cy="689" r="7" fill="#123f3a"/><circle cx="1235" cy="689" r="7" fill="#123f3a"/></svg>